{
  "asset": {
    "generator": "Khronos glTF Blender I/O v3.3.32",
    "version": "2.0"
  },
  "extensionsUsed": [
    "KHR_materials_specular",
    "KHR_materials_ior"
  ],
  "scene": 0,
  "scenes": [
    {
      "name": "Scene",
      "nodes": [
        0,
        1,
        2
      ]
    }
  ],
  "nodes": [
    {
      "mesh": 0,
      "name": "back",
      "rotation": [
        0.7071068286895752,
        0,
        0,
        0.7071067094802856
      ],
      "translation": [
        0,
        0,
        0
      ],
      "scale": [
        1,
        1,
        1
      ]
    },
    {
      "mesh": 1,
      "name": "handle",
      "rotation": [
        0.7071068286895752,
        0,
        0,
        0.7071067094802856
      ],
      "translation": [
        0,
        0,
        0
      ],
      "scale": [
        1,
        1,
        1
      ]
    },
    {
      "mesh": 2,
      "name": "machine",
      "rotation": [
        0.7071068286895752,
        0,
        0,
        0.7071067094802856
      ],
      "translation": [
        0,
        0,
        0
      ],
      "scale": [
        1,
        1,
        1
      ]
    }
  ],
  "materials": [
    {
      "doubleSided": true,
      "extensions": {
        "KHR_materials_specular": {
          "specularColorFactor": [
            0,
            0,
            0
          ]
        },
        "KHR_materials_ior": {
          "ior": 1.4500000476837158
        }
      },
      "name": "Default",
      "pbrMetallicRoughness": {
        "baseColorFactor": [
          0.800000011920929,
          0.800000011920929,
          0.800000011920929,
          1
        ],
        "metallicFactor": 0,
        "roughnessFactor": 1
      },
      "emissiveFactor": [
        0,
        0,
        0
      ],
      "alphaMode": "OPAQUE"
    },
    {
      "doubleSided": true,
      "extensions": {
        "KHR_materials_specular": {
          "specularColorFactor": [
            0,
            0,
            0
          ]
        },
        "KHR_materials_ior": {
          "ior": 1.4500000476837158
        }
      },
      "name": "button",
      "pbrMetallicRoughness": {
        "baseColorFactor": [
          0.800000011920929,
          0.800000011920929,
          0.800000011920929,
          1
        ],
        "metallicFactor": 0,
        "roughnessFactor": 1
      },
      "emissiveFactor": [
        0,
        0,
        0
      ],
      "alphaMode": "OPAQUE"
    }
  ],
  "meshes": [
    {
      "name": "back",
      "primitives": [
        {
          "attributes": {
            "POSITION": 0,
            "NORMAL": 1,
            "TEXCOORD_0": 2
          },
          "indices": 3,
          "material": 0,
          "mode": 4
        }
      ]
    },
    {
      "name": "handle",
      "primitives": [
        {
          "attributes": {
            "POSITION": 4,
            "NORMAL": 5,
            "TEXCOORD_0": 6
          },
          "indices": 7,
          "material": 0,
          "mode": 4
        }
      ]
    },
    {
      "name": "machine",
      "primitives": [
        {
          "attributes": {
            "POSITION": 8,
            "NORMAL": 9,
            "TEXCOORD_0": 10
          },
          "indices": 11,
          "material": 0,
          "mode": 4
        },
        {
          "attributes": {
            "POSITION": 12,
            "NORMAL": 13,
            "TEXCOORD_0": 14
          },
          "indices": 15,
          "material": 1,
          "mode": 4
        }
      ]
    }
  ],
  "accessors": [
    {
      "bufferView": 0,
      "componentType": 5126,
      "count": 7157,
      "max": [
        0.06199999898672104,
        -0.06477999687194824,
        -0.0406000018119812
      ],
      "min": [
        -0.06199999898672104,
        -0.12138000130653381,
        -0.30480000376701355
      ],
      "type": "VEC3",
      "byteOffset": 0
    },
    {
      "bufferView": 1,
      "componentType": 5126,
      "count": 7157,
      "type": "VEC3",
      "byteOffset": 0
    },
    {
      "bufferView": 2,
      "componentType": 5126,
      "count": 7157,
      "type": "VEC2",
      "byteOffset": 0
    },
    {
      "bufferView": 3,
      "componentType": 5123,
      "count": 14340,
      "type": "SCALAR",
      "byteOffset": 0
    },
    {
      "bufferView": 4,
      "componentType": 5126,
      "count": 4368,
      "max": [
        0.09533800184726715,
        0.03708939999341965,
        -0.09078919887542725
      ],
      "min": [
        0.0411485992372036,
        0.02567729912698269,
        -0.22540000081062317
      ],
      "type": "VEC3",
      "byteOffset": 0
    },
    {
      "bufferView": 5,
      "componentType": 5126,
      "count": 4368,
      "type": "VEC3",
      "byteOffset": 0
    },
    {
      "bufferView": 6,
      "componentType": 5126,
      "count": 4368,
      "type": "VEC2",
      "byteOffset": 0
    },
    {
      "bufferView": 7,
      "componentType": 5123,
      "count": 6552,
      "type": "SCALAR",
      "byteOffset": 0
    },
    {
      "bufferView": 8,
      "componentType": 5126,
      "count": 37012,
      "max": [
        0.07333409786224365,
        0.19044600427150726,
        0
      ],
      "min": [
        -0.07050000131130219,
        -0.13038000464439392,
        -0.30480000376701355
      ],
      "type": "VEC3",
      "byteOffset": 0
    },
    {
      "bufferView": 9,
      "componentType": 5126,
      "count": 37012,
      "type": "VEC3",
      "byteOffset": 0
    },
    {
      "bufferView": 10,
      "componentType": 5126,
      "count": 37012,
      "type": "VEC2",
      "byteOffset": 0
    },
    {
      "bufferView": 11,
      "componentType": 5123,
      "count": 65388,
      "type": "SCALAR",
      "byteOffset": 0
    },
    {
      "bufferView": 12,
      "componentType": 5126,
      "count": 1871,
      "max": [
        0.034256599843502045,
        0.10720700025558472,
        -0.3033599853515625
      ],
      "min": [
        -0.034256599843502045,
        0.09420710057020187,
        -0.30395999550819397
      ],
      "type": "VEC3",
      "byteOffset": 0
    },
    {
      "bufferView": 13,
      "componentType": 5126,
      "count": 1871,
      "type": "VEC3",
      "byteOffset": 0
    },
    {
      "bufferView": 14,
      "componentType": 5126,
      "count": 1871,
      "type": "VEC2",
      "byteOffset": 0
    },
    {
      "bufferView": 15,
      "componentType": 5123,
      "count": 3744,
      "type": "SCALAR",
      "byteOffset": 0
    }
  ],
  "bufferViews": [
    {
      "buffer": 0,
      "byteLength": 85884,
      "byteOffset": 0,
      "target": 34962,
      "byteStride": 12
    },
    {
      "buffer": 0,
      "byteLength": 85884,
      "byteOffset": 85888,
      "target": 34962,
      "byteStride": 12
    },
    {
      "buffer": 0,
      "byteLength": 57256,
      "byteOffset": 171776,
      "target": 34962,
      "byteStride": 8
    },
    {
      "buffer": 0,
      "byteLength": 28680,
      "byteOffset": 229032,
      "target": 34963
    },
    {
      "buffer": 0,
      "byteLength": 52416,
      "byteOffset": 257712,
      "target": 34962,
      "byteStride": 12
    },
    {
      "buffer": 0,
      "byteLength": 52416,
      "byteOffset": 310128,
      "target": 34962,
      "byteStride": 12
    },
    {
      "buffer": 0,
      "byteLength": 34944,
      "byteOffset": 362544,
      "target": 34962,
      "byteStride": 8
    },
    {
      "buffer": 0,
      "byteLength": 13104,
      "byteOffset": 397488,
      "target": 34963
    },
    {
      "buffer": 0,
      "byteLength": 444144,
      "byteOffset": 410592,
      "target": 34962,
      "byteStride": 12
    },
    {
      "buffer": 0,
      "byteLength": 444144,
      "byteOffset": 854736,
      "target": 34962,
      "byteStride": 12
    },
    {
      "buffer": 0,
      "byteLength": 296096,
      "byteOffset": 1298880,
      "target": 34962,
      "byteStride": 8
    },
    {
      "buffer": 0,
      "byteLength": 130776,
      "byteOffset": 1594976,
      "target": 34963
    },
    {
      "buffer": 0,
      "byteLength": 22452,
      "byteOffset": 1725752,
      "target": 34962,
      "byteStride": 12
    },
    {
      "buffer": 0,
      "byteLength": 22452,
      "byteOffset": 1748208,
      "target": 34962,
      "byteStride": 12
    },
    {
      "buffer": 0,
      "byteLength": 14968,
      "byteOffset": 1770664,
      "target": 34962,
      "byteStride": 8
    },
    {
      "buffer": 0,
      "byteLength": 7488,
      "byteOffset": 1785632,
      "target": 34963
    }
  ],
  "buffers": [
    {
      "name": "machine",
      "byteLength": 1793120,
      "uri": "data:application/octet-stream;base64,"
    }
  ]
}
